<?xml version="1.0" encoding="UTF-8" standalone="no"?>
<!-- Created with Inkscape (http://www.inkscape.org/) -->

<svg
   width="300mm"
   height="300mm"
   viewBox="0 0 300 300"
   version="1.1"
   id="svg1"
   inkscape:version="1.3.1 (9b9bdc1480, 2023-11-25, custom)"
   sodipodi:docname="aerobot_botella3"
   xmlns:inkscape="http://www.inkscape.org/namespaces/inkscape"
   xmlns:sodipodi="http://sodipodi.sourceforge.net/DTD/sodipodi-0.dtd"
   xmlns="http://www.w3.org/2000/svg"
   xmlns:svg="http://www.w3.org/2000/svg">
  <sodipodi:namedview
     id="namedview1"
     pagecolor="#ffffff"
     bordercolor="#000000"
     borderopacity="0.25"
     inkscape:showpageshadow="2"
     inkscape:pageopacity="0.0"
     inkscape:pagecheckerboard="0"
     inkscape:deskcolor="#d1d1d1"
     inkscape:document-units="mm"
     inkscape:zoom="0.78374771"
     inkscape:cx="396.17341"
     inkscape:cy="518.02384"
     inkscape:window-width="1850"
     inkscape:window-height="1016"
     inkscape:window-x="70"
     inkscape:window-y="27"
     inkscape:window-maximized="1"
     inkscape:current-layer="layer1"
     showgrid="false" />
  <defs
     id="defs1">
    <clipPath
       clipPathUnits="userSpaceOnUse"
       id="clipPath4">
      <path
         d="M 0,566.929 H 566.929 V 0 H 0 Z"
         transform="translate(-197.11341,-518.92611)"
         id="path4" />
    </clipPath>
    <clipPath
       clipPathUnits="userSpaceOnUse"
       id="clipPath6">
      <path
         d="M 0,566.929 H 566.929 V 0 H 0 Z"
         transform="translate(-285.8587,-500.67601)"
         id="path6" />
    </clipPath>
    <clipPath
       clipPathUnits="userSpaceOnUse"
       id="clipPath712">
      <path
         d="M 0,566.929 H 566.929 V 0 H 0 Z"
         transform="translate(-166.06071,-432.24811)"
         id="path712" />
    </clipPath>
    <clipPath
       clipPathUnits="userSpaceOnUse"
       id="clipPath714">
      <path
         d="M 0,566.929 H 566.929 V 0 H 0 Z"
         transform="translate(-94.9924,-433.08511)"
         id="path714" />
    </clipPath>
    <clipPath
       clipPathUnits="userSpaceOnUse"
       id="clipPath716">
      <path
         d="M 0,566.929 H 566.929 V 0 H 0 Z"
         transform="translate(-87.8287,-407.46121)"
         id="path716" />
    </clipPath>
    <clipPath
       clipPathUnits="userSpaceOnUse"
       id="clipPath718">
      <path
         d="M 0,566.929 H 566.929 V 0 H 0 Z"
         transform="translate(-270.85921,-434.02691)"
         id="path718" />
    </clipPath>
    <clipPath
       clipPathUnits="userSpaceOnUse"
       id="clipPath756">
      <path
         d="M 0,566.929 H 566.929 V 0 H 0 Z"
         id="path756" />
    </clipPath>
    <clipPath
       clipPathUnits="userSpaceOnUse"
       id="clipPath758">
      <path
         d="M 0,566.929 H 566.929 V 0 H 0 Z"
         id="path758" />
    </clipPath>
    <clipPath
       clipPathUnits="userSpaceOnUse"
       id="clipPath770">
      <path
         d="M 0,566.929 H 566.929 V 0 H 0 Z"
         transform="translate(-309.46721,-408.32001)"
         id="path770" />
    </clipPath>
    <clipPath
       clipPathUnits="userSpaceOnUse"
       id="clipPath788">
      <path
         d="M 0,566.929 H 566.929 V 0 H 0 Z"
         transform="translate(-308.11911,-405.14341)"
         id="path788" />
    </clipPath>
    <clipPath
       clipPathUnits="userSpaceOnUse"
       id="clipPath800">
      <path
         d="M 0,566.929 H 566.929 V 0 H 0 Z"
         id="path800" />
    </clipPath>
    <clipPath
       clipPathUnits="userSpaceOnUse"
       id="clipPath2">
      <path
         d="M 0,297.638 H 425.197 V 0 H 0 Z"
         transform="translate(-161.1679,-246.60921)"
         id="path2-1" />
    </clipPath>
    <clipPath
       clipPathUnits="userSpaceOnUse"
       id="clipPath4-8">
      <path
         d="M 0,297.638 H 425.197 V 0 H 0 Z"
         transform="translate(-176.29311,-191.67851)"
         id="path4-7" />
    </clipPath>
    <clipPath
       clipPathUnits="userSpaceOnUse"
       id="clipPath6-9">
      <path
         d="M 0,297.638 H 425.197 V 0 H 0 Z"
         transform="translate(-148.87,-128.4107)"
         id="path6-2" />
    </clipPath>
    <clipPath
       clipPathUnits="userSpaceOnUse"
       id="clipPath22">
      <path
         d="M 0,297.638 H 425.197 V 0 H 0 Z"
         transform="translate(-136.36101,-89.0037)"
         id="path22" />
    </clipPath>
  </defs>
  <g
     inkscape:label="Layer 1"
     inkscape:groupmode="layer"
     id="layer1">
    <path
       id="path1"
       d="m 116.55938,157.29848 -1.05082,-7.06283 -3.5873,7.06283 z m 0.86963,5.98721 h -8.55178 l -1.95719,3.83651 h -8.443334 l 13.915404,-25.38362 h 9.27693 l 4.81933,25.38362 h -8.47938 z"
       style="fill:#000000;fill-opacity:1;fill-rule:nonzero;stroke:none;stroke-width:0.344623" />
    <path
       id="path2"
       d="m 139.75094,148.04839 -0.54326,3.15541 h 7.97186 l -1.08688,5.98718 h -7.97253 l -0.65205,3.58488 h 9.05936 l -1.12366,6.34643 h -17.1035 l 4.52968,-25.38393 h 17.10355 l -1.12319,6.31003 z"
       style="fill:#000000;fill-opacity:1;fill-rule:nonzero;stroke:none;stroke-width:0.344623" />
    <path
       id="path3"
       d="m 0,0 h 9.205 c 2.229,0 3.99,0.505 5.281,1.517 1.29,1.01 2.144,2.597 2.563,4.759 0.069,0.348 0.103,0.801 0.103,1.359 0,1.533 -0.488,2.736 -1.462,3.609 -0.978,0.871 -2.407,1.307 -4.29,1.307 H 2.197 Z m 35.037,26.671 c 4.115,-3.556 6.172,-8.299 6.172,-14.225 0,-1.743 -0.14,-3.312 -0.419,-4.706 -0.907,-5.02 -3.068,-9.431 -6.483,-13.23 -3.418,-3.801 -7.846,-6.538 -13.284,-8.211 L 32.11,-42.045 H 6.589 l -9.309,26.567 -4.705,-26.567 h -23.22 l 13.074,74.05 h 34.516 c 7.948,0 13.979,-1.778 18.092,-5.334"
       style="fill:#000000;fill-opacity:1;fill-rule:nonzero;stroke:none"
       transform="matrix(0.34646468,0,0,-0.34279043,159.06548,152.70952)"
       clip-path="url(#clipPath4)" />
    <path
       id="path5"
       d="m 0,0 c 2.683,1.916 4.723,4.461 6.118,7.634 1.394,3.172 2.093,6.606 2.093,10.303 0,3.833 -1.03,6.814 -3.087,8.942 -2.056,2.126 -5.003,3.19 -8.837,3.19 -3.627,0 -6.799,-0.941 -9.518,-2.824 -2.72,-1.882 -4.794,-4.411 -6.222,-7.582 -1.43,-3.174 -2.145,-6.607 -2.145,-10.303 0,-3.836 1.028,-6.834 3.085,-8.995 2.056,-2.162 5.072,-3.242 9.047,-3.242 3.625,0 6.781,0.957 9.466,2.877 m -29.548,-20.658 c -4.741,2.579 -8.403,6.223 -10.981,10.931 -2.581,4.707 -3.87,10.092 -3.87,16.158 0,8.855 1.831,16.683 5.491,23.481 3.661,6.798 8.786,12.097 15.374,15.898 6.591,3.799 14.174,5.7 22.75,5.7 6.414,0 12.009,-1.273 16.787,-3.817 4.775,-2.546 8.453,-6.137 11.033,-10.773 2.579,-4.638 3.871,-9.988 3.871,-16.055 0,-8.786 -1.83,-16.631 -5.492,-23.533 -3.661,-6.902 -8.822,-12.272 -15.48,-16.107 -6.658,-3.836 -14.311,-5.752 -22.957,-5.752 -6.275,0 -11.784,1.289 -16.526,3.869"
       style="fill:#000000;fill-opacity:1;fill-rule:nonzero;stroke:none"
       transform="matrix(0.34646468,0,0,-0.34279043,189.81257,158.96546)"
       clip-path="url(#clipPath6)" />
    <path
       id="path711"
       d="m 0,0 c -3.625,0 -6.798,-0.941 -9.516,-2.824 -2.72,-1.882 -4.796,-4.411 -6.224,-7.582 -1.43,-3.174 -2.145,-6.607 -2.145,-10.302 0,-3.837 1.028,-6.835 3.087,-8.996 2.055,-2.162 5.072,-3.242 9.045,-3.242 3.625,0 6.781,0.957 9.466,2.877 2.684,1.917 4.723,4.461 6.118,7.635 1.396,3.171 2.093,6.605 2.093,10.302 0,3.834 -1.03,6.815 -3.085,8.942 C 6.781,-1.064 3.835,0 0,0"
       style="fill:#000000;fill-opacity:1;fill-rule:nonzero;stroke:none"
       transform="matrix(0.34646468,0,0,-0.34279043,148.30677,182.42185)"
       clip-path="url(#clipPath712)" />
    <path
       id="path713"
       d="m 0,0 c -0.872,0.628 -2.212,0.942 -4.027,0.942 h -8.995 l -1.88,-10.46 h 8.995 c 2.092,0 3.729,0.419 4.913,1.255 1.188,0.837 1.918,2.127 2.199,3.87 0.069,0.348 0.104,0.801 0.104,1.36 C 1.309,-1.639 0.872,-0.628 0,0"
       style="fill:#000000;fill-opacity:1;fill-rule:nonzero;stroke:none"
       transform="matrix(0.34646468,0,0,-0.34279043,123.68412,182.13494)"
       clip-path="url(#clipPath714)" />
    <path
       id="path715"
       d="m 0,0 h -10.564 l -1.776,-10.46 h 10.564 c 2.091,0 3.711,0.4 4.861,1.203 1.153,0.8 1.866,2.109 2.147,3.921 0.065,0.35 0.104,0.802 0.104,1.361 C 5.336,-1.326 3.556,0 0,0"
       style="fill:#000000;fill-opacity:1;fill-rule:nonzero;stroke:none"
       transform="matrix(0.34646468,0,0,-0.34279043,121.20215,190.91863)"
       clip-path="url(#clipPath716)" />
    <path
       id="path717"
       d="m 0,0 h -19.663 l -9.831,-55.643 H -52.713 L -42.881,0 h -19.455 l 3.242,18.408 H 3.242 Z m -75.67,-34.515 c -3.659,-6.903 -8.82,-12.273 -15.478,-16.107 -6.66,-3.836 -14.314,-5.753 -22.959,-5.753 -6.276,0 -11.784,1.29 -16.524,3.869 -4.744,2.58 -8.403,6.224 -10.983,10.931 -2.581,4.707 -3.869,10.093 -3.869,16.159 0,8.855 1.83,16.682 5.49,23.481 3.661,6.798 8.785,12.096 15.376,15.898 6.589,3.799 14.171,5.7 22.748,5.7 6.414,0 12.009,-1.274 16.787,-3.818 4.774,-2.546 8.453,-6.137 11.034,-10.773 2.578,-4.637 3.87,-9.988 3.87,-16.055 0,-8.785 -1.83,-16.63 -5.492,-23.532 m -74.52,33.678 c -0.765,-4.324 -2.545,-7.967 -5.332,-10.93 -2.791,-2.964 -6.139,-4.934 -10.041,-5.909 3.625,-0.907 6.395,-2.633 8.313,-5.178 1.918,-2.545 2.878,-5.526 2.878,-8.942 0,-1.116 -0.104,-2.3 -0.316,-3.556 -1.114,-6.484 -4.13,-11.489 -9.043,-15.009 -4.917,-3.521 -11.384,-5.282 -19.403,-5.282 h -38.805 l 13.076,74.051 h 37.757 c 6.693,0 11.904,-1.307 15.636,-3.922 3.729,-2.615 5.595,-6.433 5.595,-11.453 0,-1.187 -0.104,-2.476 -0.315,-3.87 m -77.763,32.605 -17.178,-103.9 H 5.074 L 21.715,31.251 Z"
       style="fill:#000000;fill-opacity:1;fill-rule:nonzero;stroke:none"
       transform="matrix(0.34646468,0,0,-0.34279043,184.61566,181.81216)"
       clip-path="url(#clipPath718)" />
    <path
       id="path787"
       d="m 0,0 0.213,0.214 13.396,-13.397 -0.212,-0.214 z"
       style="fill:none;stroke:#010101;stroke-width:1;stroke-linecap:butt;stroke-linejoin:miter;stroke-miterlimit:10;stroke-dasharray:none;stroke-opacity:1"
       transform="matrix(0.34646468,0,0,-0.34279043,180.577,192.07583)"
       clip-path="url(#clipPath788)" />
    <path
       id="path1-2"
       d="m 0,0 c -4.902,0.825 -9.544,-2.481 -10.369,-7.383 -0.598,-3.555 0.982,-6.965 3.762,-8.89 l -4.271,-25.391 6.217,-0.811 4.148,24.658 c 3.904,0.426 7.213,3.384 7.896,7.448 C 8.208,-5.467 4.902,-0.825 0,0"
       style="fill:#000000;fill-opacity:1;fill-rule:nonzero;stroke:none"
       transform="matrix(0.48951273,0,0,-0.42426584,159.48202,55.980295)"
       clip-path="url(#clipPath2)" />
    <path
       id="path3-3"
       d="m 0,0 c -0.824,-4.902 -5.467,-8.208 -10.369,-7.383 -4.902,0.824 -8.208,5.467 -7.383,10.369 0.824,4.902 5.467,8.208 10.369,7.383 C -2.481,9.544 0.825,4.902 0,0 m -29.98,5.043 c -0.825,-4.902 -5.467,-8.208 -10.369,-7.383 -4.903,0.824 -8.208,5.466 -7.384,10.369 0.825,4.902 5.467,8.207 10.369,7.383 4.903,-0.825 8.208,-5.467 7.384,-10.369 m 29.298,19.816 -37.929,6.38 C -48.864,32.964 -58.574,26.05 -60.299,15.796 L -62.148,4.799 c -0.067,-0.394 -0.121,-0.788 -0.162,-1.181 -1.117,-10.689 7.752,-19.785 18.499,-19.711 6.557,0.045 18.655,-0.746 32.296,-5.886 4.912,-1.85 10.449,-1.705 15.033,0.85 4.813,2.683 8.407,7.444 9.393,13.304 L 14.76,3.171 C 16.485,13.425 9.571,23.135 -0.682,24.859"
       style="fill:#000000;fill-opacity:1;fill-rule:nonzero;stroke:none"
       transform="matrix(0.48951273,0,0,-0.42426584,166.886,79.285487)"
       clip-path="url(#clipPath4-8)" />
    <path
       id="path5-7"
       d="m 0,0 c -0.825,-4.902 -5.467,-8.208 -10.369,-7.383 -4.902,0.824 -8.208,5.467 -7.383,10.369 0.824,4.902 5.467,8.208 10.369,7.383 C -2.481,9.544 0.824,4.902 0,0 m 21.11,-9.087 c 1.231,11.62 1.096,25.41 -2.374,40.079 -0.511,2.157 -1.879,4.035 -3.801,5.14 -3.46,1.988 -9.411,3.982 -17.122,5.279 -8.198,1.379 -14.551,1.377 -18.421,0.473 -1.953,-0.455 -3.639,-1.713 -4.715,-3.406 -8.426,-13.252 -13.118,-26.791 -15.703,-38.509 -4.523,-4.725 -17.324,-20.335 -15.878,-44.471 0.078,-1.3 1.791,-1.714 2.426,-0.577 2.955,5.295 6.592,11.58 10.417,17.574 0.002,-0.537 0.007,-1.055 0.016,-1.527 0.073,-3.866 2.402,-7.352 5.964,-8.858 4.274,-1.807 10.693,-3.518 18.541,-4.968 0.672,6.801 2.613,11.805 4.159,14.842 0.699,1.372 2.744,0.999 2.954,-0.527 0.464,-3.376 0.656,-8.725 -0.927,-15.351 8.093,-1.205 14.85,-1.575 19.491,-1.195 3.691,0.302 6.88,2.694 8.16,6.168 0.487,1.32 1.048,2.937 1.639,4.812 2.407,-7.746 4.489,-16.07 6.066,-22.88 0.294,-1.268 2.055,-1.347 2.491,-0.12 8.563,24.111 -0.856,43.493 -3.383,48.022"
       style="fill:#000000;fill-opacity:1;fill-rule:nonzero;stroke:none"
       transform="matrix(0.48951273,0,0,-0.42426584,153.46202,106.12789)"
       clip-path="url(#clipPath6-9)" />
    <path
       id="path21"
       d="m 0,0 c -0.554,-4.023 -1.743,-8.69 -4.046,-13.81 -0.669,-1.488 -2.862,-1.118 -3.008,0.507 -0.508,5.679 -0.085,10.542 0.733,14.561 -0.51,0.096 -0.921,0.271 -1.862,0.424 0,0 -7.13,2.484 -10.48,-8.442 -3.349,-10.926 11.447,-11.713 9.624,-21.876 -0.729,-4.067 -1.556,-6.595 -2.272,-8.16 -0.372,-0.813 0.534,-1.624 1.309,-1.178 3.36,1.935 8.313,6.469 8.8,16.498 0.036,0.741 0.141,1.487 0.419,2.176 1.765,4.379 5.781,3.035 6.545,-1.107 0.116,-0.631 0.974,-0.727 1.196,-0.124 C 9.893,-12.531 11.103,-3.54 0,0"
       style="fill:#000000;fill-opacity:1;fill-rule:nonzero;stroke:none"
       transform="matrix(0.48951273,0,0,-0.42426584,147.33874,122.84686)"
       clip-path="url(#clipPath22)" />
  </g>
</svg>
